<svg width="19" height="18" viewBox="0 0 19 18" fill="none" xmlns="http://www.w3.org/2000/svg">
<path d="M16.6183 9.03563C16.6267 8.84222 16.7097 8.6595 16.8501 8.52559C16.9904 8.39169 17.1773 8.31694 17.3716 8.31694C17.566 8.31694 17.7528 8.39169 17.8932 8.52559C18.0336 8.6595 18.1166 8.84222 18.125 9.03563C18.1248 10.7418 17.6146 12.4092 16.6594 13.8254C15.7042 15.2415 14.3473 16.3423 12.7616 16.9874C11.1759 17.6324 9.43336 17.7925 7.756 17.4473C6.07863 17.1021 4.54246 16.2671 3.34331 15.0489V16.7796C3.34331 16.9788 3.26386 17.1698 3.12244 17.3107C2.98103 17.4516 2.78923 17.5307 2.58924 17.5307C2.38925 17.5307 2.19745 17.4516 2.05603 17.3107C1.91462 17.1698 1.83517 16.9788 1.83517 16.7796V12.923C1.83702 12.725 1.91729 12.5358 2.0585 12.3964C2.19972 12.2571 2.39046 12.1789 2.58924 12.1789H6.50307C6.60475 12.1745 6.70626 12.1907 6.80149 12.2264C6.89672 12.2622 6.98371 12.3167 7.0572 12.3868C7.1307 12.457 7.18919 12.5412 7.22915 12.6344C7.26911 12.7276 7.2897 12.828 7.2897 12.9293C7.2897 13.0307 7.26911 13.131 7.22915 13.2242C7.18919 13.3175 7.1307 13.4017 7.0572 13.4718C6.98371 13.5419 6.89672 13.5965 6.80149 13.6322C6.70626 13.668 6.60475 13.6841 6.50307 13.6798H4.11144C5.06117 14.7735 6.32391 15.5518 7.73033 15.9104C9.13674 16.2689 10.6196 16.1906 11.98 15.6859C13.3405 15.1811 14.5135 14.2741 15.3418 13.0865C16.1701 11.8988 16.614 10.4873 16.6141 9.04124L16.6183 9.03563ZM15.8726 1.15857C15.8683 1.05729 15.8845 0.956177 15.9204 0.861315C15.9562 0.766453 16.011 0.679807 16.0814 0.606596C16.1518 0.533384 16.2363 0.475123 16.3299 0.435321C16.4235 0.395519 16.5242 0.375 16.626 0.375C16.7278 0.375 16.8285 0.395519 16.9221 0.435321C17.0157 0.475123 17.1002 0.533384 17.1706 0.606596C17.241 0.679807 17.2958 0.766453 17.3317 0.861315C17.3675 0.956177 17.3838 1.05729 17.3794 1.15857V5.05156C17.379 5.24932 17.3004 5.43896 17.1605 5.57932C17.0207 5.71968 16.8309 5.79944 16.6323 5.80129H12.7551C12.6534 5.80566 12.5519 5.78949 12.4567 5.75376C12.3614 5.71802 12.2745 5.66345 12.201 5.59333C12.1275 5.52322 12.069 5.43901 12.029 5.34578C11.9891 5.25255 11.9685 5.15223 11.9685 5.05085C11.9685 4.94948 11.9891 4.84916 12.029 4.75593C12.069 4.6627 12.1275 4.57849 12.201 4.50838C12.2745 4.43826 12.3614 4.38369 12.4567 4.34795C12.5519 4.31221 12.6534 4.29605 12.7551 4.30042H14.8034C13.8416 3.23082 12.5764 2.47731 11.1752 2.13959C9.77406 1.80188 8.30298 1.89587 6.95662 2.40914C5.61026 2.92241 4.45207 3.83076 3.63528 5.01401C2.8185 6.19726 2.38161 7.59965 2.38243 9.03563C2.38683 9.13691 2.3706 9.23802 2.33472 9.33288C2.29884 9.42775 2.24405 9.51439 2.17367 9.5876C2.10328 9.66082 2.01874 9.71908 1.92514 9.75888C1.83155 9.79868 1.73083 9.8192 1.62907 9.8192C1.5273 9.8192 1.42659 9.79868 1.33299 9.75888C1.2394 9.71908 1.15486 9.66082 1.08447 9.5876C1.01408 9.51439 0.959297 9.42775 0.923418 9.33288C0.88754 9.23802 0.871309 9.13691 0.875703 9.03563C0.876506 7.54007 1.26921 6.07062 2.01498 4.7726C2.76074 3.47458 3.83374 2.39295 5.12786 1.63467C6.42198 0.876399 7.8924 0.467747 9.39369 0.449131C10.895 0.430515 12.3751 0.802578 13.6878 1.52853C14.5041 1.9811 15.2418 2.5617 15.8726 3.248V1.15857Z" fill="#FCFCFC"/>
</svg>
