<svg width="218" height="47" viewBox="0 0 218 47" fill="none" xmlns="http://www.w3.org/2000/svg">
<path fill-rule="evenodd" clip-rule="evenodd" d="M0 23.0059C0 35.7062 10.3056 46.0118 23.0059 46.0118C35.7062 46.0118 46.0118 35.7062 46.0118 23.0059C46.0118 10.3056 35.7062 0 23.0059 0C10.3056 0 0 10.3056 0 23.0059ZM0.812476 23.0059C0.812476 10.7332 10.776 0.769714 23.0486 0.769714C35.3213 0.769714 45.2848 10.7332 45.2848 23.0059C45.2848 35.2358 35.3213 45.1993 23.0486 45.1993C10.776 45.2421 0.812476 35.2785 0.812476 23.0059Z" fill="#384B8E"/>
<path fill-rule="evenodd" clip-rule="evenodd" d="M7.18399 16.72C13.0851 12.8714 19.5849 10.605 30.6175 12.5293C31.2162 12.1872 31.5582 11.8451 31.7293 11.1181C28.9925 10.1346 25.9992 9.79253 22.1506 9.83529C18.6869 9.92082 12.4437 11.2037 9.10827 13.1707L10.1346 11.8879C12.4865 10.5195 18.5586 8.72348 23.0914 8.5952C26.2985 8.55244 27.9663 8.72348 31.7721 9.74977C31.43 9.10834 30.6602 8.76624 29.5057 8.2531C25.8282 6.58539 18.9007 6.4571 13.2562 8.93729C13.9831 8.46691 14.6673 8.03929 15.6081 7.61167C17.4896 6.75644 20.5257 5.94396 24.3315 5.98672C27.3676 6.02949 31.0023 7.09853 33.226 9.27939C33.6108 9.70701 33.8246 10.1774 33.9102 10.5622C35.6634 11.4602 36.6897 12.2727 37.2456 13.2562C37.4594 13.7694 37.5877 14.3253 37.4594 14.924C38.1863 15.3516 38.5284 15.7364 38.9133 16.2068C39.1699 16.5917 39.3837 17.062 39.4264 17.4897C39.512 18.0456 39.5547 18.6442 38.9988 19.3712C39.5975 19.6705 40.0679 20.483 40.1534 20.8679C40.41 22.1935 39.5975 23.4763 38.4429 24.5026C37.1601 25.6572 34.295 26.9828 31.9859 27.5815C27.3676 28.736 23.3052 29.2492 20.0553 29.8478C21.5092 30.1899 23.4763 30.6603 26.7262 30.6603C33.6108 30.6603 39.683 27.4104 39.683 27.4104C39.683 27.4104 39.5547 27.838 39.4264 28.2229C35.0647 30.8741 28.0945 31.9859 25.144 31.8577C22.1079 31.7294 19.5849 31.259 17.1047 30.4893C16.335 30.7031 15.6081 30.9169 14.8811 31.259C18.6442 32.9695 21.5092 33.3543 24.7591 33.6109C28.0518 33.8675 33.4825 33.055 38.1008 31.3873C37.887 31.6011 37.8015 31.9432 37.5877 32.1142C35.2358 33.3543 30.2326 34.5944 27.7524 34.6799C25.2723 34.7655 22.2362 34.6799 19.5849 34.2096C17.3185 33.7819 15.437 33.055 13.5127 32.1997C13.1706 32.4563 12.9996 32.7984 12.9141 33.1833C20.3119 37.1174 27.4103 37.2029 35.4923 34.6799L34.7654 35.4069C25.8709 38.9989 18.9435 37.5877 13.5555 35.022C13.3845 34.9365 13.1706 34.851 12.9996 34.7655C13.5127 35.6207 17.6179 38.614 22.1934 38.9989C25.3578 39.2555 29.2063 38.6996 31.5155 37.8015L30.1471 38.4857C29.0353 39.0416 26.0847 40.2817 21.9796 39.9824C16.5061 39.5975 13.4272 37.2029 12.0161 35.92C11.3746 35.3214 11.0753 34.6372 10.8615 33.7819C9.62141 33.1405 8.8517 32.4563 8.21027 31.4728C7.82541 30.8741 7.91094 30.2327 7.99646 29.6768L8.12475 29.1637C7.52608 28.736 6.92742 28.2657 6.67084 27.7953C6.11494 26.8118 6.45703 25.9993 6.84189 25.3151C6.4998 24.9302 6.20046 24.5881 6.07218 24.2033C5.94389 23.7329 5.90113 23.3053 5.94389 22.8349C6.02942 22.0224 6.4998 21.2527 7.0557 20.6113C8.25303 19.2429 10.1346 18.1739 13.3845 17.1048C16.5488 16.0785 17.7889 15.9075 20.1836 15.3516C22.9631 14.7101 26.2985 14.4963 29.0781 13.5128C21.3382 12.1444 13.2562 13.3845 6.71361 17.9173L7.18399 16.72ZM33.5681 11.9306C33.4825 12.3155 33.0549 12.7431 32.7983 13.0424C33.6536 13.2562 34.5088 13.5556 35.3213 13.8977C35.193 13.128 34.3378 12.401 33.5681 11.9306ZM9.70694 27.4104C9.19379 27.1111 8.8517 26.94 8.46684 26.6407C8.25303 27.1111 8.68065 27.667 9.10827 27.9236C9.27932 27.7525 9.49313 27.5815 9.70694 27.4104ZM35.8344 17.2759C36.3903 17.5324 36.9035 17.7462 37.3739 18.0883C37.716 17.4041 37.5021 16.9765 36.7752 16.3779C36.5186 16.72 36.1765 17.0193 35.8344 17.2759ZM34.1667 18.3021C33.0549 18.8153 31.3872 19.3712 29.0781 19.9699C27.1965 20.4402 22.5355 21.1244 17.5324 22.1935C15.9502 22.5356 11.674 23.5619 9.57865 25.3151C10.1773 25.7855 10.5194 25.9138 11.2036 26.2558C12.0588 25.6999 13.2562 25.1868 15.0094 24.7164C18.0883 23.9039 20.3546 23.5619 23.1342 23.0915C25.8709 22.6639 31.0023 21.5948 33.8674 20.5685C34.8081 20.2264 35.6634 19.7988 36.3048 19.2857C36.091 19.1146 34.2522 18.2166 34.1667 18.3021ZM12.6147 30.2327C13.0424 29.9761 13.5555 29.7196 14.1114 29.5058C13.2989 29.1637 12.4865 28.8216 11.674 28.4367C11.2891 28.6505 10.947 28.9071 10.6905 29.1637C11.3319 29.5057 11.9306 29.8906 12.6147 30.2327ZM9.96351 30.4893C9.96351 31.0024 10.2628 31.4728 10.947 32.0287C11.0326 31.7294 11.1608 31.5583 11.3746 31.3017C10.8615 31.0452 10.4339 30.7458 9.96351 30.4893ZM13.8548 20.9961C19.4566 19.3712 25.3578 18.858 31.3444 17.2759C28.9925 16.6344 27.7524 16.3779 25.2723 16.6772C21.6803 17.1048 17.7462 17.8745 14.368 18.858C13.0424 19.2429 6.07218 21.2099 8.08199 23.9895C8.08199 24.0322 9.27932 22.3645 13.8548 20.9961ZM34.8937 15.266C33.9957 14.8384 32.8411 14.4536 31.601 14.1115C31.0451 14.5391 30.4464 14.924 29.5057 15.266C31.0023 15.5226 32.1569 15.9502 33.4398 16.3351C33.6963 16.4634 34.7226 15.4799 34.8937 15.266ZM37.6732 20.654C37.5021 20.7823 37.3311 20.9534 37.1173 21.0817C35.8344 22.0652 33.8246 22.8349 31.0451 23.6046C25.2723 25.144 21.0816 25.4006 16.2923 26.5552C15.3515 26.769 14.4107 27.1111 13.5127 27.4532C14.4107 27.9236 15.3515 28.3084 16.335 28.6933C18.2593 28.1374 19.2001 27.8808 22.0224 27.4104C23.0914 27.2394 26.3841 26.6407 28.7787 26.1276C33.0549 25.2723 39.3409 23.2625 37.6732 20.654Z" fill="#384B8E"/>
<path fill-rule="evenodd" clip-rule="evenodd" d="M68.0341 33.0122H72.7806L73.3365 29.5485H76.5864L77.1423 33.0122H81.8889L77.8693 12.8713H71.9681L68.0341 33.0122ZM75.0042 18.9435L75.9022 25.1012H74.149L75.0042 18.9435Z" fill="#384B8E"/>
<path fill-rule="evenodd" clip-rule="evenodd" d="M86.4216 20.6967C87.1913 20.6967 88.5597 20.2263 88.5597 18.7296C88.5597 16.9764 86.9347 16.8481 86.5071 16.8481C85.9512 16.8481 84.9677 16.9336 83.9414 17.404L83.8986 13.0423C85.4808 12.6575 86.6354 12.5292 87.961 12.5292C91.7668 12.5292 93.5201 15.2232 93.5201 17.8316C93.5201 20.3974 92.0234 21.9368 90.6123 22.5355V22.7493C91.9806 23.1769 93.8194 24.5025 93.8194 27.5814C93.8194 31.3872 91.1682 33.4825 87.79 33.4825C85.9512 33.4825 84.7966 33.2259 83.3855 32.4562L83.471 28.2655C84.7966 28.8214 85.6946 28.8642 86.5926 28.8642C88.0893 28.8642 88.688 27.7524 88.688 26.9399C88.688 25.8281 87.961 25.0584 86.3788 25.0584H84.4545V20.6967H86.4216Z" fill="#384B8E"/>
<path fill-rule="evenodd" clip-rule="evenodd" d="M108.786 33.0122H104.082V17.7034H100.704V33.0122H96.0004V12.8713H108.786V33.0122Z" fill="#384B8E"/>
<path fill-rule="evenodd" clip-rule="evenodd" d="M111.437 33.0122H116.098V26.3841H117.681C122.299 26.3841 123.753 22.2362 123.753 19.585C123.753 16.9765 122.128 12.8713 117.681 12.8713H111.437V33.0122ZM116.098 17.3186H117.21C118.279 17.3186 118.921 17.96 118.921 19.6277C118.921 21.8086 117.809 21.9369 117.21 21.9369H116.098V17.3186Z" fill="#384B8E"/>
<path fill-rule="evenodd" clip-rule="evenodd" d="M132.391 33.2686C137.95 33.2686 139.788 28.0945 139.788 22.9203C139.788 17.7461 137.907 12.5719 132.391 12.5719C126.832 12.5719 124.993 17.7461 124.993 22.9203C124.993 28.0945 126.874 33.2686 132.391 33.2686ZM132.391 28.3938C130.766 28.3938 129.91 26.4695 129.91 22.9203C129.91 19.371 130.766 17.4468 132.391 17.4468C134.058 17.4468 134.871 19.371 134.871 22.9203C134.914 26.4695 134.058 28.3938 132.391 28.3938Z" fill="#384B8E"/>
<path fill-rule="evenodd" clip-rule="evenodd" d="M160.143 33.0122H165.745C166.942 33.0122 171.988 32.499 172.031 26.4269C172.031 21.2954 168.097 20.3974 165.574 20.3974H164.761V17.7462H170.962V12.8713H160.186V33.0122H160.143ZM164.761 28.9926V24.417H165.446C166.001 24.417 167.455 24.4598 167.455 26.5124C167.455 28.6505 165.959 28.9926 165.446 28.9926H164.761Z" fill="#384B8E"/>
<path fill-rule="evenodd" clip-rule="evenodd" d="M201.237 33.0122H196.704V24.9729H193.412V33.0122H188.836V12.8713H193.412V20.1409H196.704V12.8713H201.237V33.0122Z" fill="#384B8E"/>
<path fill-rule="evenodd" clip-rule="evenodd" d="M217.487 12.8713L213.895 22.45L218 33.0122H212.612L210.003 24.9302H208.892V33.0122H204.316V12.8713H208.892V20.1409H209.875L212.526 12.8713H217.487Z" fill="#384B8E"/>
<path fill-rule="evenodd" clip-rule="evenodd" d="M59.0114 12.8713H68.59V17.9172H63.7579V33.0122H59.0114V12.8713Z" fill="#384B8E"/>
<path fill-rule="evenodd" clip-rule="evenodd" d="M152.36 33.0122V20.7395L149.538 24.246L146.716 20.7395V33.0122H142.055V12.8713H146.032L149.538 17.6179L153.045 12.8713H157.021V33.0122H152.36Z" fill="#384B8E"/>
<path fill-rule="evenodd" clip-rule="evenodd" d="M172.929 33.0549H177.676L178.231 29.5912H181.481L182.08 33.0549H186.827L182.807 12.9141H176.906L172.929 33.0549ZM179.899 18.9862L180.797 25.144H179.044L179.899 18.9862Z" fill="#384B8E"/>
</svg>
