<svg width="16" height="21" viewBox="0 0 16 21" fill="none" xmlns="http://www.w3.org/2000/svg">
<path fill-rule="evenodd" clip-rule="evenodd" d="M3 6.5V5.5C3 2.73858 5.23858 0.5 8 0.5C10.7614 0.5 13 2.73858 13 5.5V6.5C14.6569 6.5 16 7.84315 16 9.5V17.5C16 19.1569 14.6569 20.5 13 20.5H3C1.34315 20.5 0 19.1569 0 17.5V9.5C0 7.84315 1.34315 6.5 3 6.5ZM5 5.5C5 3.84315 6.34315 2.5 8 2.5C9.65685 2.5 11 3.84315 11 5.5V6.5H5V5.5ZM2 9.5C2 8.94772 2.44772 8.5 3 8.5H13C13.5523 8.5 14 8.94772 14 9.5V17.5C14 18.0523 13.5523 18.5 13 18.5H3C2.44772 18.5 2 18.0523 2 17.5V9.5Z" fill="#6F767E"/>
</svg>
