<svg width="22" height="19" viewBox="0 0 22 19" fill="none" xmlns="http://www.w3.org/2000/svg">
<g clip-path="url(#clip0_71_3864)">
<path d="M11.5 10.2759C14.0053 10.2759 16.0362 8.24492 16.0362 5.73962C16.0362 3.23432 14.0053 1.20337 11.5 1.20337C8.99469 1.20337 6.96375 3.23432 6.96375 5.73962C6.96375 8.24492 8.99469 10.2759 11.5 10.2759Z" stroke="#6F767E" stroke-width="2.52677" stroke-miterlimit="10"/>
<path d="M3.1875 18.5883L3.48042 16.9654C3.82645 15.0911 4.81812 13.3972 6.28316 12.178C7.7482 10.9589 9.59403 10.2914 11.5 10.2916C13.4082 10.2921 15.2559 10.9618 16.7212 12.1841C18.1866 13.4065 19.1768 15.104 19.5196 16.9812L19.8125 18.6041" stroke="#6F767E" stroke-width="2.52677" stroke-miterlimit="10"/>
</g>
<defs>
<clipPath id="clip0_71_3864">
<rect width="19" height="19" fill="white" transform="translate(2)"/>
</clipPath>
</defs>
</svg>
