<svg width="24" height="24" viewBox="0 0 24 24" fill="none" xmlns="http://www.w3.org/2000/svg">
<g clip-path="url(#clip0_161_4508)">
<path d="M10.6144 8.58106C10.6144 7.98312 11.0989 7.49814 11.6969 7.49814C12.2948 7.49814 12.7794 7.98312 12.7794 8.58106V13.1191L15.781 14.4385C16.3278 14.6792 16.5758 15.3172 16.3351 15.8636C16.0945 16.41 15.4564 16.658 14.9101 16.4178L11.3167 14.838C10.9062 14.6841 10.6144 14.2883 10.6144 13.8242V8.58106ZM2.22106 8.89784C2.18995 8.80575 2.17072 8.70794 2.1654 8.60603L2.00169 5.5983C1.97099 5.00282 2.42938 4.49532 3.02486 4.46504C3.62035 4.43434 4.12785 4.89272 4.15813 5.48821L4.18842 6.04482C4.63444 5.47086 5.13937 4.94522 5.69494 4.4765C6.4304 3.85604 7.26572 3.32686 8.1919 2.9139C10.8386 1.73316 13.7109 1.73602 16.2144 2.69494C18.6925 3.64445 20.813 5.52996 22.0015 8.13128C22.033 8.18776 22.0596 8.24751 22.0809 8.30972C23.2211 10.9315 23.2076 13.7665 22.2597 16.2418C21.3102 18.7199 19.4247 20.8403 16.8234 22.0284C16.6623 22.1188 16.4806 22.166 16.2958 22.1656C15.6979 22.1656 15.2133 21.681 15.2133 21.083C15.2133 20.6124 15.5137 20.2121 15.9332 20.0631C16.248 19.9187 16.5496 19.7574 16.8373 19.5802C16.8701 19.5532 16.9048 19.5278 16.9417 19.5041C17.4054 19.2045 17.8462 18.8615 18.2448 18.4793C18.271 18.4543 18.2984 18.4306 18.3266 18.4089C19.1722 17.5699 19.8197 16.5647 20.2383 15.4719C21.002 13.4788 21.0065 11.1967 20.0705 9.09879L20.0701 9.09756C19.1341 6.99965 17.4348 5.4788 15.4446 4.71633C13.4514 3.95304 11.1693 3.94854 9.07142 4.88413C8.35608 5.20277 7.68924 5.62066 7.09055 6.12544C6.68701 6.46596 6.32112 6.84003 5.99575 7.24234L6.13695 7.22474C6.72998 7.1523 7.26981 7.57467 7.34225 8.1677C7.41469 8.76073 6.99233 9.30056 6.39929 9.373L3.40917 9.74134C2.8501 9.80928 2.33852 9.43808 2.22106 8.89784ZM13.6024 22.9342C14.457 22.8384 14.8646 21.832 14.317 21.1678C14.0833 20.8841 13.7281 20.7446 13.3638 20.7822C12.727 20.8538 12.0898 20.8526 11.4534 20.7769C11.0711 20.7315 10.6983 20.8882 10.4633 21.1931C9.95749 21.8656 10.359 22.8208 11.1927 22.9264C11.994 23.0222 12.8003 23.0242 13.6024 22.9342ZM6.69642 21.2697C7.02057 21.4849 7.4237 21.5095 7.77362 21.3409C8.52218 20.9701 8.59093 19.9326 7.89681 19.4681C7.37254 19.1222 6.86791 18.6921 6.4394 18.2337C6.04732 17.8162 5.40477 17.7733 4.96153 18.1359C4.84706 18.2297 4.75306 18.3461 4.68535 18.4777C4.61763 18.6093 4.57765 18.7534 4.56787 18.9011C4.55809 19.0488 4.57871 19.1969 4.62847 19.3363C4.67823 19.4757 4.75607 19.6035 4.85716 19.7116C5.40313 20.2927 6.03013 20.8305 6.69642 21.2697ZM2.44738 15.5865C2.56689 15.9729 2.88612 16.2545 3.2827 16.3306C4.08242 16.4792 4.75648 15.7232 4.51583 14.9464C4.32511 14.3325 4.20929 13.708 4.16222 13.0667C4.10656 12.3165 3.33509 11.8544 2.64547 12.1528C2.22515 12.3431 1.97181 12.7581 2.00251 13.2197C2.06062 14.0244 2.20796 14.8159 2.44738 15.5865Z" fill="#6F767E"/>
</g>
<defs>
<clipPath id="clip0_161_4508">
<rect width="24" height="24" fill="white"/>
</clipPath>
</defs>
</svg>
